<?xml version="1.0" standalone="no"?>
<!DOCTYPE svg PUBLIC "-//W3C//DTD SVG 20010904//EN"
 "http://www.w3.org/TR/2001/REC-SVG-20010904/DTD/svg10.dtd">
<svg version="1.0" xmlns="http://www.w3.org/2000/svg"
 width="32.000000pt" height="32.000000pt" viewBox="0 0 32.000000 32.000000"
 preserveAspectRatio="xMidYMid meet">

<g transform="translate(0.000000,32.000000) scale(0.100000,-0.100000)"
fill="#000000" stroke="none">
<path d="M120 270 c-27 -21 -26 -23 24 -51 14 -8 21 -8 27 2 6 11 14 9 36 -7
21 -16 29 -31 31 -61 4 -50 -20 -82 -69 -89 -29 -5 -41 -1 -65 19 -26 23 -29
31 -27 77 2 44 0 51 -15 48 -37 -7 -31 -101 9 -144 53 -56 133 -53 183 7 51
60 24 164 -48 190 -20 7 -36 17 -36 21 0 14 -24 8 -50 -12z"/>
<path d="M115 170 c-18 -20 -18 -21 5 -43 18 -18 22 -18 17 -4 -5 14 0 17 33
17 21 0 42 5 45 10 4 6 -11 10 -39 10 -36 0 -44 3 -40 15 8 21 1 19 -21 -5z"/>
</g>
</svg>
